/* XPM */
static char *_ff5eee21fb64462cf727a7e1c1498ad[] = {
/* columns rows colors chars-per-pixel */
"64 64 189 2 ",
"   c #085535",
".  c #146642",
"X  c #0F7149",
"o  c #127D4B",
"O  c #237D53",
"+  c #0F8856",
"@  c #178450",
"#  c #188355",
"$  c #108D51",
"%  c #108D5A",
"&  c #1D8A5C",
"*  c #16935E",
"=  c #169E5D",
"-  c #288155",
";  c #29845E",
":  c #258D5D",
">  c #298B5C",
",  c #24965E",
"<  c #13A65F",
"1  c #169660",
"2  c #149D64",
"3  c #1A9C64",
"4  c #2E8762",
"5  c #338D69",
"6  c #3B8A6E",
"7  c #249660",
"8  c #299362",
"9  c #2B9962",
"0  c #2E926C",
"q  c #239E68",
"w  c #2A9D6C",
"e  c #3A9067",
"r  c #34936C",
"t  c #3D9172",
"y  c #1EA067",
"u  c #1DA369",
"i  c #1CAA6C",
"p  c #1BB26C",
"a  c #15B86A",
"s  c #1CB475",
"d  c #1CBF73",
"f  c #1CBC7A",
"g  c #23A66C",
"h  c #23AA6E",
"j  c #2FA96D",
"k  c #27A771",
"l  c #24AC71",
"z  c #28AF72",
"x  c #33A677",
"c  c #38A176",
"v  c #32AD71",
"b  c #37A779",
"n  c #33AC79",
"m  c #23B373",
"M  c #2AB476",
"N  c #25BD77",
"B  c #2EBB75",
"V  c #22B779",
"C  c #2EB778",
"Z  c #26BA7B",
"A  c #2BBC7D",
"S  c #32B576",
"D  c #32B57A",
"F  c #32BE7B",
"G  c #3DBB7E",
"H  c #41936B",
"J  c #469C73",
"K  c #439D7C",
"L  c #45A47B",
"P  c #17C672",
"I  c #19C674",
"U  c #16C873",
"Y  c #1BC976",
"T  c #1ECA79",
"R  c #17D077",
"E  c #22C57A",
"W  c #2BC27D",
"Q  c #22CC7D",
"!  c #34C27D",
"~  c #20D37F",
"^  c #2DBE81",
"/  c #38B584",
"(  c #32BE82",
")  c #38BB84",
"_  c #45AB85",
"`  c #4DB383",
"'  c #42BB84",
"]  c #51B384",
"[  c #53B788",
"{  c #58BF8D",
"}  c #4BB791",
"|  c #48BD91",
" . c #26C180",
".. c #2DC382",
"X. c #26CE81",
"o. c #29CE83",
"O. c #34C384",
"+. c #38C486",
"@. c #34CB84",
"#. c #39CC86",
"$. c #3CC689",
"%. c #35CC8B",
"&. c #3ECB8A",
"*. c #23D281",
"=. c #2BD186",
"-. c #27D886",
";. c #28D887",
":. c #2ED289",
">. c #2EDE8E",
",. c #34D385",
"<. c #39D387",
"1. c #33D48D",
"2. c #3BD388",
"3. c #32D98F",
"4. c #3DDA8C",
"5. c #37D690",
"6. c #39D793",
"7. c #34DC92",
"8. c #3DD996",
"9. c #3FD998",
"0. c #36E296",
"q. c #3EE292",
"w. c #3CE39A",
"e. c #43CA8E",
"r. c #55C18D",
"t. c #43D58E",
"y. c #43C593",
"u. c #4FC790",
"i. c #45CC91",
"p. c #4ACE92",
"a. c #46C998",
"s. c #57C390",
"d. c #59C492",
"f. c #5BCB95",
"g. c #56CA9F",
"h. c #5DCF98",
"j. c #42D393",
"k. c #4DD294",
"l. c #45DD92",
"z. c #45D49C",
"x. c #43DC9C",
"c. c #4DDD9A",
"v. c #51D296",
"b. c #51D996",
"n. c #55D499",
"m. c #5AD69B",
"M. c #55DA9A",
"N. c #5CD99D",
"B. c #61D79E",
"V. c #60DB9F",
"C. c #40E093",
"Z. c #41E39F",
"A. c #4ED7A1",
"S. c #47DDA0",
"D. c #4ADEA2",
"F. c #55D2A5",
"G. c #5EDFA2",
"H. c #58D3A8",
"J. c #5CDCAE",
"K. c #6CD1A0",
"L. c #64DCA2",
"P. c #68DEA5",
"I. c #43E5A1",
"U. c #4DE1A6",
"Y. c #46EAA5",
"T. c #4FE1A8",
"R. c #4DEDAB",
"E. c #5DE4A4",
"W. c #57E9A2",
"Q. c #53E3AB",
"!. c #58E5AF",
"~. c #52EBAE",
"^. c #5AE6B1",
"/. c #56E8B0",
"(. c #5DE8B5",
"). c #53F0B2",
"_. c #58F1B6",
"`. c #66E2A6",
"'. c #68E2A7",
"]. c #66E4A8",
"[. c #68E4A9",
"{. c #66EAAA",
"}. c #6AEAAD",
"|. c #60E9B7",
" X c #61EBB9",
".X c #62F1BD",
"XX c #66F5C1",
"oX c #69FAC6",
"OX c None",
/* pixels */
"OXOXOXOXOXOXOXOXOXOXOXOXOXOXOXOXOXOXOXOXOXOXOXOXOXe f.L.P.d.OXOXOXOXOXOXOXOXOXOXOXOXOXOXOXOXOXOXOXOXOXOXOXOXOXOXOXOXOXOXOXOXOXOX",
"OXOXOXOXOXOXOXOXOXOXOXOXOXOXOXOXOXOXOXOXOXOXO G M.L.G.L.L.'.`.OXOXOXOXOXOXOXOXOXOXOXOXOXOXOXOXOXOXOXOXOXOXOXOXOXOXOXOXOXOXOXOXOX",
"OXOXOXOXOXOXOXOXOXOXOXOXOXOXOXOXOXOXOXOXv 4.c.M.n.m.N.L.L.L.}.J OXOXOXOXOXOXOXOXOXOXOXOXOXOXOXOXOXOXOXOXOXOXOXOXOXOXOXOXOXOXOXOX",
"OXOXOXOXOXOXOXOXOXOXOXOXOXOXOXOXOXOXF l.4.j.p.v.n.m.m.N.L.L.[.[ OXOXOXOXOXOXOXOXOXOXOXOXOXOXOXOXOXOXOXOXOXOXOXOXOXOXOXOXOXOXOXOX",
"OXOXOXOXOXOXOXOXOXOXOXOXOXOXOXOXS 4.4.2.&.p.p.v.v.n.N.G.B.L.[.] OXOXOXOXOXOXOXOXOXOXOXOXOXOXOXOXOXOXOXOXOXOXOXOXOXOXOXOXOXOXOXOX",
"OXOXOXOXOXOXOXOXOXOXOXOXOXOX9 4.4.2.2.2.e.i.p.k.v.n.m.m.B.L.}.H OXOXOXOXOXOXOXOXOX/ z.D.T.Q.D.a.r OXOXOXOXOXOXOXOXOXOXOXOXOXOXOX",
"OXOXOXOXOXOXOXOXOXOXOXOXOX+.4.2.2.2.2.&.e.e.p.p.v.v.m.m.N.L.}.OXOXOXOXOXOXOXOXT.)./.Q.Q././.!.(.XX.X_ OXOXOXOXOXOXOXOXOXOXOXOXOX",
"OXOXOXOXOXOXOXOXOXOXOXOX4.4.2.2.2.2.&.$.$.e.e.p.k.v.n.m.m.G.h.OXOXOXOXOXOXb ).T.T.T.T.Q.Q.Q.!.!.^.(.XXQ.OXOXOXOXOXOXOXOXOXOXOXOX",
"OXOXOXOXOXOXOXOXOXOX> q.2.2.2.2.2.2.$.O.$.e.e.p.p.v.n.n.N.].OXOXOXOXOXOXb R.U.U.U.U.T.Q.Q.Q.!.!.^.^.(..X.XOXOXOXOXOXOXOXOXOXOXOX",
"OXOXOXOXOXOXOXOXOX9 q.2.2.2.2.2.2.2.+.+.$.e.e.i.p.k.v.n.N.N.OXOXOXOXOX4 R.S.U.U.S.U.Q.T.Q.Q.!.!.^.^.^.(. XXXOXOXOXOXOXOXOXOXOXOX",
"OXOXOXOXOXOXOXOX9 q.2.2.#.2.2.2.2.#.( O.$.$.e.i.p.p.v.v.E.OXOXOXOXOXOXY.S.S.S.S.U.U.U.T.Q.Q.!.!.^.^.^.(.(. XXXOXOXOXOXOXOXOXOXOX",
"OXOXOXOXOXOXOX- q.2.2.2.2.2.2.2.2.%.^ O.O.$.e.e.i.p.k.M.u.OXOXOXOXOX) I.S.x.U.U.D.U.T.T.T.Q.Q.Q./.^.^.(.(.|. XoXOXOXOXOXOXOXOXOX",
"OXOXOXOXOXOXOX4.2.2.2.2.2.2.2.2.2.O.^ O.O.$.$.e.e.p.p.M.OXOXOXOXOXOXY.x.x.x.S.S.U.U.U.T.T.T.Q.Q./.!.^.^.(.(.|. X XOXOXOXOXOXOXOX",
"OXOXOXOXOXOX2.4.2.#.2.2.2.2.2.2.2...^ O.O.$.$.&.e.p.M.r OXOXOXOXOX/ Z.x.x.S.S.S.U.c.U.U.T.Q.Q.Q.Q.!.^.^.^.(.|.|.XXH.OXOXOXOXOXOX",
"OXOXOXOXOXj 4.2.2.2.2.2.2.2.2.2.,.^ ^ ( O.O.$.$.&.k.' OXOXOXOXOXOXw.x.9.x.x.x.S.x.U.U.D.T.T.Q.Q.Q.!.^.^.(.(.(. X XoXK OXOXOXOXOX",
"OXOXOXOXOXC.2.2.2.2.2.2.2.2.2.2.%.^ ^ ^ O.) +.$.e.i.OXOXOXOXOXOXO I.9.x.x.x.x.S.S.S.U.U.T.T.Q.Q.Q.Q./.!.^.^.(.(. X XoXOXOXOXOXOX",
"OXOXOXOX@.2.2.2.<.<.t.<.<.<.<.<.#.N A A ..O.O.$.j.OXOXOXOXOXOXOXD 9.8.9.x.x.x.x.S.S.D.T.U.U.U.Q.Q.Q.!.^.^.(.(.(.|.|.XXH.OXOXOXOX",
"OXOXOXOXC.2.2.2.<.<.<.<.<.t.<.t.#.N Z A ^ O.) 6.O OXOXOXOXOXOXOX%.8.8.x.x.x.x.x.S.c.D.D.U.U.T.T.Q.Q.Q.!.!.^.^.(.|.|. XoXOXOXOXOX",
"OXOXOX#.2.2.2.2.t.#.<.t.<.<.t.<.@.V Z A ^ ( %.8 OXOXOXOXOXOXOXOX8.8.8.8.8.x.x.x.S.S.D.D.U.U.T.Q.Q.Q.Q.^.^.^.^.|.(.|.|. XJ.OXOXOX",
"OXOXOXq.2.2.2.2.<.<.<.<.<.<.2.<.@.V Z Z ^ %.w OXOXOXOXOXOXOXOXOXw.8.8.8.9.8.x.x.x.S.S.D.c.U.U.T.T.Q.Q.Q.!.^.^.^.(.|. X XoXOXOXOX",
"OXOXS 4.2.2.2.2.2.2.#.<.t.<.<.2...s V ^  .k OXOXOXOXOXOXOXOXOXOX0.5.8.8.9.9.x.x.x.x.S.S.D.T.D.T.T.Q.Q.Q.Q.!.^.^.(.|.|.|.XXg.OXOX",
"OXOX4.2.2.2.2.2.2.2.<.<.<.<.<.t.@.s V  .l OXOXOXOXOXOXOXOXOXOXOXw.5.6.8.8.9.9.x.x.S.S.S.D.D.T.T.T.Q.Q.Q.!.!.^.^.^.^.|.|. XoXOXOX",
"OXOXC.2.2.2.2.2.t.2.<.<.<.<.<.<...s f l OXOXOXOXOXOXOXOXOXOXOXOXw.6.6.8.8.8.8.x.x.x.S.S.D.D.T.T.T.T.Q.Q.Q.!.!.!.^.(.|.|.|.oX6 OX",
"OXj 4.2.2.2.2.2.<.<.<.t.<.<.<.t.o.f i OXOXOXOXOXOXOXOXOXOXOXOXOX0.5.5.6.8.8.9.x.x.x.x.S.S.D.D.D.T.T.T.Q.Q.!.!.!.^.^.|.|.|.XXg.OX",
"OX#.2.2.2.2.2.2.2.2.2.2.<.t.2.<.:.2 OXOXOXOXOXOXOXOXOXOXOXOXOXOX0.5.6.5.6.8.9.9.x.x.x.x.S.S.D.T.U.U.U.Q.Q.!.!.!.^.^.^.|.|. X|.OX",
"OX4.2.2.2.<.2.2.<.2.2.2.<.<.2.2.F OXOXOXOXOXOXOXOXOXOXOXOXOXOXOX5.5.5.6.6.9.8.9.9.x.x.x.S.S.D.D.U.U.T.Q.Q.Q.Q.!.^.^.(.(.|.|.XXOX",
"OX4.2.2.2.2.2.2.2.2.2.2.<.<.<.l.[ OXOXOXOXOXOXOXOXOXOXOXOXOXOXOX%.3.5.6.6.8.8.9.9.x.x.x.x.S.S.D.U.U.T.T.Q.Q.Q.!.^.^.^.(.(.|.XXt ",
"9 4.2.2.2.2.2.<.2.2.2.2.t.<.t.'.{ OXOXOXOXOXOXOXOXOXOXOXOXOXOXOXM 7.1.5.6.6.6.8.8.8.x.x.x.S.S.D.D.c.U.T.T.Q.Q.Q.!.^.^.^.(.|..X} ",
"B 4.2.2.2.2.2.2.2.2.<.2.<.t.V.'.s.OXOXOXOXOXOXOXOXOXOXOXOXOXOXOX: 7.3.5.6.6.6.8.8.9.x.x.x.S.S.S.D.T.T.T.Q.T.Q.Q./.!.^.^.(.|. XH.",
"! 2.2.2.2.2.2.2.2.2.<.<.2.N.L.P.h.OXOXOXOXOXOXOXOXOXOXOXOXOXOXOXOX0.5.5.5.6.6.8.8.x.9.x.x.x.S.S.D.D.D.U.T.T.Q.Q.Q./.!.^.^.(.(.J.",
"2.2.2.2.2.2.2.2.2.2.2.<.b.L.L.`.h.OXOXOXOXOXOXOXOXOXOXOXOXOXOXOXOX7.1.1.1.6.6.6.8.8.8.x.x.x.S.S.D.D.U.U.T.T.T.Q.Q.!.^.^.^.(.(. X",
"2.4.2.2.2.2.2.2.2.2.#.k.`.L.L.`.B.OXOXOXOXOXOXOXOXOXOXOXOXOXOXOXOX^ 5.1.1.6.6.6.8.8.8.x.x.x.x.S.c.D.D.D.T.T.Q.Q.Q.Q.!.^.^.^.(.(.",
"2.<.2.2.2.2.2.2.2.#.t.V.L.L.L.P.L.OXOXOXOXOXOXOXOXOXOXOXOXOXOXOXOXq 7.1.5.5.5.6.8.8.9.9.9.x.x.S.S.S.S.D.U.U.T.Q.Q.Q.!.!.!.(.(.(.",
"2.2.2.2.2.<.<.2.2.2.M.P.L.L.L.L.L.OXOXOXOXOXOXOXOXOXOXOXOXOXOXOXOXOX7.3.1.5.5.5.6.8.8.9.9.x.x.S.S.S.D.D.U.U.T.T.Q.Q.Q.!.!.^.^.(.",
"4.<.4.<.2.2.2.2.2.t.P.L.L.L.L.L.'.OXOXOXOXOXOXOXOXOXOXOXOXOXOXOXOXOX7.:.1.5.5.5.6.6.6.9.9.x.x.x.S.S.D.D.U.U.T.T.Q.Q.Q.!.!.!.(.!.",
"! 2.2.2.2.2.2.2.2.N.L.L.L.L.L.L.`.OXOXOXOXOXOXOXOXOXOXOXOXOXOXOXOXOX7.:.1.1.5.5.6.6.6.9.9.9.9.x.x.S.S.D.D.U.T.T.T.Q.Q.Q./.!.(.F.",
"! 4.! 4.2.2.2.2.t.L.V.P.L.L.L.L.`.OXOXOXOXOXOXOXOXOXOXOXOXOXOXOXOXOX;.1.1.1.5.5.5.6.6.8.9.9.9.z.x.S.S.S.U.U.U.U.T.Q.Q.Q.Q.!.(.| ",
"S t.4.4.2.2.2.2.N.`.P.V.L.L.L.L.`.OXOXOXOXOXOXOXOXOXOXOXOXOXOXOXOXOX..1.:.1.1.1.5.6.6.9.8.9.9.9.x.x.S.S.S.S.S.U.T.T.T.Q./.!._.L ",
"B.4.! 4.2.2.2.t.L.P.V.P.L.L.L.L.'.OXOXOXOXOXOXOXOXOXOXOXOXOXOXOXOXOX .1.:.1.1.5.5.5.6.6.6.9.9.x.x.x.x.S.S.U.S.U.T.T.Q.Q.Q.!.Q.OX",
"OX4.! 4.2.2.2.b.P.V.P.V.L.L.L.L.`.OXOXOXOXOXOXOXOXOXOXOXOXOXOXOXOXOXW 1.:.:.1.1.5.5.6.6.6.9.9.9.x.x.x.S.U.S.U.U.T.T.T.Q.Q.^.D.OX",
"OX! <.2.2.4.4.G.L.L.L.L.L.L.L.L.`.OXOXOXOXOXOXOXOXOXOXOXOXOXOXOXOXOXo.1.=.:.1.1.5.5.5.6.6.9.9.9.x.x.x.x.S.S.D.D.T.T.Q.Q.Q./.e.OX",
"OX! 4.2.2.! t.`.L.V.L.L.L.L.L.P.`.OXOXOXOXOXOXOXOXOXOXOXOXOXOXOXOX  o.;.:.:.:.1.1.5.5.6.6.8.8.9.9.x.x.x.S.D.D.D.D.U.U.U.Q./.0 OX",
"OXq q.2.4.4.b.`.L.L.L.L.L.L.L.L.L.OXOXOXOXOXOXOXOXOXOXOXOXOXOXOXOX+ X.=.:.:.:.1.1.1.5.5.6.6.6.8.8.x.x.x.S.S.S.D.D.U.T.Q.T._.OXOX",
"OXOXq.2.! ! V.L.L.L.L.L.L.L.V.P.N.OXOXOXOXOXOXOXOXOXOXOXOXOXOXOX  2 o.=.=.:.:.,.1.1.1.6.6.6.8.9.9.9.x.x.x.S.S.I.D.T.U.T./.A.OXOX",
"OXOX2.t.4.t.V.L.L.V.L.L.L.L.L.`.f.OXOXOXOXOXOXOXOXOXOXOXOXOXOXOX+ 2 =.=.=.=.:.:.1.1.5.5.5.5.6.9.8.9.x.x.x.S.S.S.U.S.U.U.).5 OXOX",
"OXOXv q.4.4.L.L.L.L.L.L.L.L.L.`.] OXOXOXOXOXOXOXOXOXOXOXOXOXOXX % i X.=.=.=.:.:.:.1.1.1.5.6.6.8.8.9.9.9.x.x.S.S.S.U.U.U.Q.OXOXOX",
"OXOXOXq.<.t.`.V.L.L.L.L.L.L.L.}.H OXOXOXOXOXOXOXOXOXOXOXOXOXOX3 + s X.X.=.=.=.:.:.,.5.5.5.5.6.6.8.8.9.x.x.x.S.S.S.U.U.R.c OXOXOX",
"OXOXOX! 4.t.L.L.L.L.L.L.L.L.L.}.OXOXOXOXOXOXOXOXOXOXOXOXOXOX1 1 * E ~ o.X.=.=.=.:.1.1.1.5.5.5.6.6.8.8.9.9.x.x.S.c.S.U.U.OXOXOXOX",
"OXOXOXOXq.t.L.L.V.L.V.P.V.L.P.L.OXOXOXOXOXOXOXOXOXOXOXOXOX# u * 3 X.Q X.o.=.=.=.:.1.:.1.1.5.5.6.6.8.9.9.9.x.x.x.S.S.~.4 OXOXOXOX",
"OXOXOXOXF l.V.P.L.L.P.V.L.L.}.L OXOXOXOXOXOXOXOXOXOXOXOX. p 3 * p *.Q o.X.o.=.=.=.:.:.1.1.1.5.6.8.6.8.9.9.x.x.x.S.U.i.OXOXOXOXOX",
"OXOXOXOXOXq.V.`.L.L.L.L.L.'.}.OXOXOXOXOXOXOXOXOXOXOXOXOXz u 3 1 E Q Q o.X.o.X.=.:.:.1.1.1.5.6.5.6.6.8.9.9.x.x.x.x.Y.OXOXOXOXOXOX",
"OXOXOXOXOXOXW.'.L.L.L.L.L.}.L OXOXOXOXOXOXOXOXOXOXOXOXz h g q i T Q Q Q Q X.o.=.=.=.:.:.1.1.1.5.6.6.6.8.8.9.9.x.R.OXOXOXOXOXOXOX",
"OXOXOXOXOXOX- {.'.L.L.L.}.s.OXOXOXOXOXOXOXOXOXOXOXOXg M l g y d T T Q Q X.o.o.=.=.=.%.:.1.1.1.5.5.6.6.9.9.9.x.Y.x OXOXOXOXOXOXOX",
"OXOXOXOXOXOXOXOXh.}.}.}.J OXOXOXOXOXOXOXOXOXOXOXOX7 F z l g i T T Q Q Q Q o.X.X.=.=.=.:.:.1.1.5.5.5.6.8.8.9.I.) OXOXOXOXOXOXOXOX",
"OXOXOXOXOXOXOXOXOXOXOXOXOXOXOXOXOXOXOXOXOXOXOXOXO @.M M z g I Y T T Q Q Q Q X.o.o.=.=.:.:.1.1.1.5.5.6.6.6.I.) OXOXOXOXOXOXOXOXOX",
"OXOXOXOXOXOXOXOXOXOXOXOXOXOXOXOXOXOXOXOXOXOXOXOX,.F A M z s I T T T T Q Q X.Q o.o.=.=.=.:.:.1.1.5.5.5.6.Z.D OXOXOXOXOXOXOXOXOXOX",
"OXOXOXOXOXOXOXOXOXOXOXOXOXOXOXOXOXOXOXOXOXOXOX#.@.F C C z I U Y I T T Q Q Q Q o.o.=.=.=.:.:.1.1.5.5.8.w.w OXOXOXOXOXOXOXOXOXOXOX",
"OXOXOXOXOXOXOXOXOXOXOXOXOXOXOXOXOXOXOXOXOXOXF 2.@.! F C I U I I I T E Y Q Q Q Q X.o.o.=.:.:.:.1.1.7.7.OXOXOXOXOXOXOXOXOXOXOXOXOX",
"OXOXOXOXOXOXOXOXOXOXOXOXOXOXOXOXOXOXOXOXOXOX4.$.O.! F N I P P I I Y T Q Q Q Q o.X.X.o.=.=.:.:.1.0.A OXOXOXOXOXOXOXOXOXOXOXOXOXOX",
"OXOXOXOXOXOXOXOXOXOXOXOXOXOXOXOXOXOXOXOXOX+.2.2.@.O.W P P P P I I T Y T Q Q Q Q X.X.o.=.=.:.7.:.OXOXOXOXOXOXOXOXOXOXOXOXOXOXOXOX",
"OXOXOXOXOXOXOXOXOXOXOXOXOXOXOXOXOXOXOXOXOX2.2.#.#.! U P P P P P I Y Y T T Q Q Q X.X.o.=.>.:.& OXOXOXOXOXOXOXOXOXOXOXOXOXOXOXOXOX",
"OXOXOXOXOXOXOXOXOXOXOXOXOXOXOXOXOXOXOXOXOXD l.2.@.I P P P I P P I I I T T T Q Q *.;.;.N OXOXOXOXOXOXOXOXOXOXOXOXOXOXOXOXOXOXOXOX",
"OXOXOXOXOXOXOXOXOXOXOXOXOXOXOXOXOXOXOXOXOXOX> ! R R R Y U P P P P U U Y T ~ ~ E p @ OXOXOXOXOXOXOXOXOXOXOXOXOXOXOXOXOXOXOXOXOXOX",
"OXOXOXOXOXOXOXOXOXOXOXOXOXOXOXOXOXOXOXOXOXOXOXOXOXOX$ < a P P P P I d p < o OXOXOXOXOXOXOXOXOXOXOXOXOXOXOXOXOXOXOXOXOXOXOXOXOXOX"
};
