/* XPM */
static char *e6f7d6058c054eabb74b642345d7ed8a[] = {
/* columns rows colors chars-per-pixel */
"32 32 152 2 ",
"   c #0B613D",
".  c #136440",
"X  c #1B744D",
"o  c #127C4F",
"O  c #1D784B",
"+  c #21774D",
"@  c #227C4F",
"#  c #227D56",
"$  c #357555",
"%  c #377C5B",
"&  c #397E5D",
"*  c #12804F",
"=  c #158658",
"-  c #1E865A",
";  c #129556",
":  c #248254",
">  c #208458",
",  c #248E5C",
"<  c #159C63",
"1  c #2F8F68",
"2  c #3D8763",
"3  c #3B8964",
"4  c #2B9C67",
"5  c #2C9A6B",
"6  c #30956D",
"7  c #3D8F72",
"8  c #349370",
"9  c #1AA167",
"0  c #16AB65",
"q  c #1CA368",
"w  c #1BAD6D",
"e  c #14B366",
"r  c #1EB570",
"t  c #1DBC73",
"y  c #27A46D",
"u  c #24AA6F",
"i  c #2FA96D",
"p  c #24AF71",
"a  c #37AC75",
"s  c #34AC7A",
"d  c #2CB375",
"f  c #25B97B",
"g  c #2CBA7B",
"h  c #32B373",
"j  c #31BE78",
"k  c #409069",
"l  c #439F7E",
"z  c #46A677",
"x  c #43AA79",
"c  c #17C672",
"v  c #1AC573",
"b  c #17CA74",
"n  c #1AC975",
"m  c #1ECB7A",
"M  c #26C279",
"N  c #2AC17E",
"B  c #22CC7D",
"V  c #37C57F",
"C  c #39C17F",
"Z  c #20D17E",
"A  c #2EBE81",
"S  c #31BC80",
"D  c #3DBE8B",
"F  c #4BB28D",
"G  c #57BE8C",
"H  c #24C381",
"J  c #2FC581",
"K  c #26CE81",
"L  c #29CD83",
"P  c #32C283",
"I  c #38C686",
"U  c #35CB85",
"Y  c #39CB84",
"T  c #36C588",
"R  c #3DC68B",
"E  c #31CC8A",
"W  c #3DCA8A",
"Q  c #26D182",
"!  c #2BD185",
"~  c #2FD389",
"^  c #39D387",
"/  c #33D58D",
"(  c #3BD488",
")  c #30DE8F",
"_  c #3CDB8C",
"`  c #36D690",
"'  c #39D692",
"]  c #36DE94",
"[  c #3CD995",
"{  c #3EDA98",
"}  c #37E196",
"|  c #3FE191",
" . c #3AE399",
".. c #48C28A",
"X. c #42CA8D",
"o. c #4ECC8E",
"O. c #43D58D",
"+. c #40DA8E",
"@. c #46CC90",
"#. c #49CE92",
"$. c #5CCE97",
"%. c #51C79C",
"&. c #54CA9F",
"*. c #46D392",
"=. c #4BD194",
"-. c #45D59A",
";. c #48D59E",
":. c #43DC9C",
">. c #4FDA99",
",. c #50D296",
"<. c #52D997",
"1. c #55D59A",
"2. c #57DA9A",
"3. c #5CDB9E",
"4. c #42E394",
"5. c #40E19C",
"6. c #4FE59C",
"7. c #54CBA0",
"8. c #47DEA0",
"9. c #49DFA2",
"0. c #53D0A1",
"q. c #5DDCA0",
"w. c #5DDCAE",
"e. c #65DDA3",
"r. c #70D6AE",
"t. c #45E5A3",
"y. c #4CE0A5",
"u. c #45E8A3",
"i. c #4EE3A8",
"p. c #4CEBAA",
"a. c #56E0A0",
"s. c #53E4AC",
"d. c #58E1AE",
"f. c #51E8AF",
"g. c #59E6B1",
"h. c #52EEB0",
"j. c #5DE9B4",
"k. c #66E2A6",
"l. c #68E1A6",
"z. c #68E5A9",
"x. c #64EAA9",
"c. c #6AEAAC",
"v. c #62ECBA",
"b. c #6DF1B1",
"n. c #64F3BF",
"m. c #65F5C1",
"M. c #66F9C3",
"N. c #69FBC6",
"B. c #85D4B6",
"V. c #86DEBC",
"C. c #8DEDC9",
"Z. c None",
/* pixels */
"Z.Z.Z.Z.Z.Z.Z.Z.Z.Z.Z.Z.x e.e.Z.Z.Z.Z.Z.Z.Z.Z.Z.Z.Z.Z.Z.Z.Z.Z.Z.",
"Z.Z.Z.Z.Z.Z.Z.Z.Z.@ C >.3.3.z.G Z.Z.Z.Z.Z.Z.Z.Z.Z.Z.Z.Z.Z.Z.Z.Z.",
"Z.Z.Z.Z.Z.Z.Z.Z.Y 4.*.=.1.3.l.G Z.Z.Z.Z.Z.V.C.B.Z.Z.Z.Z.Z.Z.Z.Z.",
"Z.Z.Z.Z.Z.Z.i | _ W X.#.=.1.z.2 Z.Z.Z.D y.t.i.f.f.8 Z.Z.Z.Z.Z.Z.",
"Z.Z.Z.Z.Z.V | ( ( T R @.=.1.q.Z.Z.Z.-.p.i.i.d.g.j.M.%.Z.Z.Z.Z.Z.",
"Z.Z.Z.Z.Y _ ( ( Y T R X.#.a.3 Z.Z.s p.9.9.i.i.d.g.g.m.&.Z.Z.Z.Z.",
"Z.Z.Z.h _ ( ( ( Y A T R *...Z.Z.Z.u.:.9.9.i.s.s.g.g.j.N.F Z.Z.Z.",
"Z.Z.+ 4.( ( ( ( J A T R *.Z.Z.Z.5 u.:.8.9.i.i.s.f.g.g.v.N.Z.Z.Z.",
"Z.Z.( ( ( ( ( ( N g P ` Z.Z.Z.Z.I { :.:.9.9.9.s.i.g.g.j.v.v.Z.Z.",
"Z.: 4.( ( ( ( O.N g E # Z.Z.Z.Z.' { :.:.;.9.i.i.s.d.g.g.j.N.7 Z.",
"Z.V ( ( ( Y ( ( N H - Z.Z.Z.Z.Z.] { { :.:.y.i.i.i.g.g.g.j.v.w.Z.",
"Z._ ( ( ( ( ( ( K = Z.Z.Z.Z.Z.Z.' ' { :.:.:.9.9.i.i.s.g.j.v.m.Z.",
", _ ( ( ( ( ( +., Z.Z.Z.Z.Z.Z.Z.` ' [ { :.:.9.9.y.s.s.g.g.j.n.l ",
"h _ ( ( ( ( ( 6.Z.Z.Z.Z.Z.Z.Z.Z.J ' ' { { :.:.9.y.i.i.d.g.g.v.&.",
"Y ( ( ( ( ( *.c.Z.Z.Z.Z.Z.Z.Z.Z.y } ' [ :.:.:.9.y.y.i.s.g.g.j.g.",
"( ( ( ( ( ( q.c.$ Z.Z.Z.Z.Z.Z.Z.X } ' ' +.:.:.:.9.y.i.i.s.g.g.v.",
"( ( ( ( ( 2.k.c.& Z.Z.Z.Z.Z.Z.Z.Z.} / ' { { :.:.8.9.i.i.s.d.j.j.",
"( ( ( ( *.e.e.c.2 Z.Z.Z.Z.Z.Z.Z.Z.~ / ` ' { { :.8.9.9.i.s.s.g.d.",
"V _ ( ( 3.l.e.z.2 Z.Z.Z.Z.Z.Z.Z.Z.J ` ` ` ' { { :.9.9.i.i.s.g.&.",
"o._ ^ O.e.e.e.c.2 Z.Z.Z.Z.Z.Z.Z.Z.N ) / ` ' { :.:.8.9.i.i.s.f.r.",
"z _ ^ >.l.e.e.c.2 Z.Z.Z.Z.Z.Z.Z.Z.L / / / ' ' { :.:.:.i.y.s.f.Z.",
"Z.( ^ 3.e.e.e.z.% Z.Z.Z.Z.Z.Z.Z.  ! ~ ~ / ' ' { :.:.:.9.y.i.;.Z.",
"Z.M _ e.e.e.e.c.Z.Z.Z.Z.Z.Z.Z.Z.< ! ! ~ / / ' ] +.:.:.9.y.h.6 Z.",
"Z.O 4.e.e.e.e.z.Z.Z.Z.Z.Z.Z.Z.o w Q ! ! ~ / ' ' { :.:.:.5.f.Z.Z.",
"Z.Z.O.l.e.q.l.$.Z.Z.Z.Z.Z.Z.. 9 t Q L ! ~ / ` ` ' { { :.p.1 Z.Z.",
"Z.Z.Z.c.l.l.b.Z.Z.Z.Z.Z.Z.Z.p y m K K Q ~ ~ / ` ' { { u.R Z.Z.Z.",
"Z.Z.Z.Z.e.z.k Z.Z.Z.Z.Z.Z.d p r m K K K ! ~ / ` ' [  .-.Z.Z.Z.Z.",
"Z.Z.Z.Z.Z.Z.Z.Z.Z.Z.Z.Z.d g p v m B K K L ~ ~ / ` { [ Z.Z.Z.Z.Z.",
"Z.Z.Z.Z.Z.Z.Z.Z.Z.Z.Z.4 U g t b n B B K Q ! ~ /  .S Z.Z.Z.Z.Z.Z.",
"Z.Z.Z.Z.Z.Z.Z.Z.Z.Z.Z._ Y M c c n m B B Q ! ) / > Z.Z.Z.Z.Z.Z.Z.",
"Z.Z.Z.Z.Z.Z.Z.Z.Z.Z.Z.4.! b c c n n m Q m t * Z.Z.Z.Z.Z.Z.Z.Z.Z.",
"Z.Z.Z.Z.Z.Z.Z.Z.Z.Z.Z.Z.; e v c n v 0 a Z.Z.Z.Z.Z.Z.Z.Z.Z.Z.Z.Z."
};
