/* XPM */
static char *_ed0b8e74308448584d6027090ab2c88[] = {
/* columns rows colors chars-per-pixel */
"16 16 141 2 ",
"   c #20714A",
".  c #22764E",
"X  c #227A4F",
"o  c #237D51",
"O  c #1C8054",
"+  c #1E8356",
"@  c #188454",
"#  c #1B935E",
"$  c #278B59",
"%  c #238D5C",
"&  c #3A825F",
"*  c #298962",
"=  c #2E8D60",
"-  c #378368",
";  c #2C9E66",
":  c #399876",
">  c #1FBF72",
",  c #2FA372",
"<  c #29AC73",
"1  c #38A272",
"2  c #31AB77",
"3  c #23B274",
"4  c #20BC77",
"5  c #2EB279",
"6  c #3CB77A",
"7  c #419979",
"8  c #43B17B",
"9  c #16C772",
"0  c #19C573",
"q  c #18C673",
"w  c #1DCB78",
"e  c #1FCD7B",
"r  c #23C078",
"t  c #25C178",
"y  c #23CB7E",
"u  c #22CF7F",
"i  c #35C07B",
"p  c #43B380",
"a  c #52B586",
"s  c #53B58F",
"d  c #55BC8A",
"f  c #54BD8B",
"g  c #26CF81",
"h  c #2DC884",
"j  c #31C583",
"k  c #33CB88",
"l  c #39CE89",
"z  c #3ACF8F",
"x  c #25D484",
"c  c #2AD285",
"v  c #2AD086",
"b  c #2CD287",
"n  c #2ED68A",
"m  c #30D38A",
"M  c #33D488",
"N  c #33D58D",
"B  c #33D68E",
"V  c #3BD088",
"C  c #3FD289",
"Z  c #39D588",
"A  c #3BD588",
"S  c #3BD489",
"D  c #3AD589",
"F  c #3BD589",
"G  c #3BD688",
"H  c #3CD589",
"J  c #3CD58A",
"K  c #3CD78A",
"L  c #3ED78B",
"P  c #3BD88B",
"I  c #3CD88B",
"U  c #3EDE8F",
"Y  c #36D690",
"T  c #3CD090",
"R  c #38D591",
"E  c #32DE91",
"W  c #39D893",
"Q  c #3CD996",
"!  c #3FDB99",
"~  c #3DDD98",
"^  c #35E295",
"/  c #3BE098",
"(  c #39E298",
")  c #3DE89E",
"_  c #40C88C",
"`  c #49D796",
"'  c #41DC90",
"]  c #49DD94",
"[  c #40DD9A",
"{  c #42DC9C",
"}  c #45DE9F",
"|  c #46DE9F",
" . c #50D996",
".. c #5BD79C",
"X. c #40E593",
"o. c #40E594",
"O. c #43E09E",
"+. c #52E29C",
"@. c #46DFA0",
"#. c #48DFA1",
"$. c #48DFA2",
"%. c #49DFA2",
"&. c #57D4A7",
"*. c #5BDFA1",
"=. c #5CDFAD",
"-. c #62DDA2",
";. c #67DFA5",
":. c #68DFA6",
">. c #70DBB1",
",. c #48E2A3",
"<. c #49E1A4",
"1. c #4CE1A5",
"2. c #47EDA7",
"3. c #49EAA7",
"4. c #4FE2A8",
"5. c #4BE7A9",
"6. c #4FE8AB",
"7. c #56E1A1",
"8. c #5EE2A2",
"9. c #51E5AB",
"0. c #52E4AB",
"q. c #50E6AC",
"w. c #55E5AD",
"e. c #55E5AE",
"r. c #58E7B0",
"t. c #59E6B1",
"y. c #58E7B1",
"u. c #5EE9B5",
"i. c #5CEBB5",
"p. c #5DECB6",
"a. c #5AF2B9",
"s. c #67E3A7",
"d. c #69E7AB",
"f. c #6AE8AB",
"g. c #6CE8AC",
"h. c #62EBB9",
"j. c #63F4BF",
"k. c #73FAB8",
"l. c #7AEBC0",
"z. c #66FCC5",
"x. c None",
/* pixels */
"x.x.x.x.x.= ..a x.x.x.x.x.x.x.x.",
"x.x.x.X S ` *.f x.x.>.l.x.x.x.x.",
"x.x.; X.l _ 7.x.x.,.5.0.a.: x.x.",
"x.o o.J j T 1 x., 3.1.0.y.z.- x.",
"x.J I S h 5 x.x.z | %.0.e.p.h.x.",
"$ U A P 3 x.x.x.R [ | %.0.y.z.7 ",
"i I A ' x.x.x.x.k ~ { %.1.w.y.&.",
"A A A 8.x.x.x.x.< ~ [ @.1.0.t.u.",
"G A  .g.x.x.x.x.+ ( Q { @.0.e.t.",
"C J -.d.x.x.x.x.x.^ W ! @.,.0.=.",
"6 ] s.d.x.x.x.x.@ E R Q { %.q.s ",
"x.+.:.s.x.x.x.x.> n B W ! @.,.x.",
"x.8 k.d x.x.x.# y v n R Q 2.* x.",
"x.x.& x.x.x.% r e g b B ) 2 x.x.",
"x.x.x.x.x.. M q w u x v O x.x.x.",
"x.x.x.x.x.  4 9 q t p x.x.x.x.x."
};
